{"title":"Kubo and the Two Strings TS XviD-VAiN","uid":15819052,"size":1490398257,"categoryP":"video","categoryS":"movies","magnet":"?xt=urn:btih:806f161e8b84aa0dfebc4e9ed8fcd6d0d90685a8&amp;dn=Kubo+and+the+Two+Strings+TS+XviD-VAiN+&amp;tr=udp%3A%2F%2Ftracker.leechers-paradise.org%3A6969&amp;tr=udp%3A%2F%2Fzer0day.ch%3A1337&amp;tr=udp%3A%2F%2Fopen.demonii.com%3A1337&amp;tr=udp%3A%2F%2Ftracker.coppersurfer.tk%3A6969&amp;tr=udp%3A%2F%2Fexodus.desync.com%3A6969","seeders":133,"leechers":63,"uploader":"makintos13","files":3,"time":1473735390,"description":"screens:\r\n \nhttps://imgmak.com/age\r\n \nhttps://imgmak.com/agg\r\n \nhttps://imgmak.com/ago\r\n \nhttps://imgmak.com/agN\r\n\r\n\r\nP R E S E N T S . . . . \r\n\r\nKubo.and.the.Two.Strings.TS.XviD-VAiN\r\n\r\niMDB........: http://www.imdb.com/title/tt4302938/\r\n\r\n\r\n\r\nT E C H N i C A L . i N F O . . .\r\n\r\nBasic Information\r\nFormat                      : AVI\r\nFormat/Info                 : Audio Video Interleave\r\nFile size                   : 1.37 GiB\r\nDuration                    : 1 h 31 min\r\nOverall bit rate            : 2 139 kb/s\r\nWriting application         : VirtualDubMod 1.5.10.2 (build 2540/release)\r\nWriting library             : VirtualDubMod build 2540/release\r\n\r\nVideo\r\nID                          : 0\r\nFormat                      : MPEG-4 Visual\r\nFormat profile              : Advanced   \r\nFormat settings, BVOP       : 2\r\nFormat settings, QPel       : No\r\nFormat settings, GMC        : No warppoints\r\nFormat settings, Matrix     : Default (H.263)\r\nMuxing mode                 : Packed bitstream\r\nCodec ID                    : XVID\r\nCodec ID/Hint               : XviD\r\nDuration                    : 1 h 31 min\r\nBit rate                    : 1 936 kb/s\r\nWidth                       : 688 pixels\r\nHeight                      : 240 pixels\r\nDisplay aspect ratio        : 2.867\r\nFrame rate                  : 29.970 (30000/1001) FPS\r\nColor space                 : YUV\r\nChroma subsampling          : 4:2:0\r\nBit depth                   : 8 bits\r\nScan type                   : Progressive\r\nCompression mode            : Lossy\r\nBits/(Pixel*Frame)          : 0.391\r\nStream size                 : 1.24 GiB (90%)\r\nWriting library             : XviD 64\r\n\r\nAudio\r\nID                          : 1\r\nFormat                      : MPEG Audio\r\nFormat version              : Version 1\r\nFormat profile              : Layer 3\r\nCodec ID                    : 55\r\nCodec ID/Hint               : MP3\r\nDuration                    : 1 h 31 min\r\nBit rate mode               : Constant\r\nBit rate                    : 192 kb/s\r\nChannel(s)                  : 2 channels\r\nSampling rate               : 44.1 kHz\r\nCompression mode            : Lossy\r\nStream size                 : 126 MiB (9%)\r\nAlignment                   : Split accross interleaves\r\nInterleave, duration        : 33  ms (1.00 video frame)\r\nInterleave, preload duratio : 500  ms\r\n\r\nE N C O D E R S . N O T E S . . .       \r\n\r\nSOURCE......: ViDEO...\r\n............: AUDiO...\r\nSAMPLE......: Yippers \r\nADDED NOTE..: video has sum issues. perspect is on tried to fix, rotated cropped chopped and sum additional filers to adjust saturation and what not.. \r\n\r\n\r\n\r\nS C R E E N . S H O T S","torrent":{"xt":"urn:btih:806f161e8b84aa0dfebc4e9ed8fcd6d0d90685a8","amp;dn":"Kubo+and+the+Two+Strings+TS+XviD-VAiN+","amp;tr":["udp%3A%2F%2Ftracker.leechers-paradise.org%3A6969","udp%3A%2F%2Fzer0day.ch%3A1337","udp%3A%2F%2Fopen.demonii.com%3A1337","udp%3A%2F%2Ftracker.coppersurfer.tk%3A6969","udp%3A%2F%2Fexodus.desync.com%3A6969"],"infoHash":"806f161e8b84aa0dfebc4e9ed8fcd6d0d90685a8","infoHashBuffer":{"type":"Buffer","data":[128,111,22,30,139,132,170,13,254,188,78,158,216,252,214,208,217,6,133,168]},"announce":[],"urlList":[]}}